<svg width="104" height="80" fill="none" xmlns="http://www.w3.org/2000/svg"><path d="M63.4659 32.9566l-.0007.0012-.0038.0069-.1426.2586h-.0003c-2.6874 4.9198-4.0407 10.3967-4.0407 16.462 0 8.8629 1.8815 15.882 5.5117 21.1804 3.4835 4.9885 9.336 7.6338 17.9733 7.6338 5.3921 0 9.4315-1.6565 12.3196-4.8326l.0022-.0025-31.6187-40.7078zm0 0c2.848-5.2014 6.3015-9.8168 10.36-13.8523 4.1927-4.1639 8.6317-7.6894 13.3166-10.5827 4.1822-2.58279 7.7625-4.74815 10.7429-6.49743l3.9916 6.29981c-4.2653 2.34932-7.7851 4.42742-10.5506 6.23282-3.1349 1.9469-6.2912 4.5374-9.472 7.7501-.0005.0005-.001.001-.0014.0015l-.0012.0011M63.4659 32.9566l18.3859-10.6471m0 0c-3.1142 3.1525-5.5103 6.4404-7.1561 9.8691l-.0024.005v-.0001m7.1585-9.874l-7.1585 9.874m0 0l-.0036.0077m.0036-.0077l-.0036.0077m0 0l-.0031.0067-.0003.0006m.0034-.0073l-.0034.0073m0 0c-1.5464 3.3472-2.6151 7.6556-3.2503 12.8692l-.1366 1.1208-.0683.5605m3.4552-14.5505L71.2311 46.749m0 0h.5646m-.5646 0h.5646m0 0h8.6247c6.2279 0 10.8926 1.4735 14.1832 4.2334l.0009.0008M71.7957 46.749l22.8088 4.2342m0 0l.0115.0096-.0001.0001m-.0114-.0097l.0114.0097m0 0l.0094.0075m-.0094-.0075l.0094.0075m0 0l.0117.0093.0014.001m-.0131-.0103l.0131.0103m0 0c3.3083 2.6107 5.0506 6.5151 5.0506 11.9833m-5.0506-11.9833L99.689 62.994m0 0c0 3.6953-1.4734 7.2413-4.6023 10.668l4.6023-10.668zM24.0753 22.3082l-.0001.0002-.0024.0024c-3.0139 3.058-5.3555 6.2966-6.9987 9.7199-1.6556 3.4492-2.7793 7.8123-3.4159 13.037l-.1366 1.1208-.0683.5605h9.1893c6.2279 0 10.8926 1.4735 14.1833 4.2334l.0106.0089.0054.0047.0056.0044.0117.0093.0014.001c3.3083 2.6107 5.0508 6.5152 5.0508 11.9833 0 3.6962-1.4742 7.2429-4.6046 10.6704h-.0001l-.002.0024a.05882.05882 0 01-.0033.0036c-2.888 3.1739-6.9263 4.8291-12.3164 4.8291-8.6374 0-14.49-2.6454-17.97343-7.6341C3.3815 65.5671 1.5 58.548 1.5 49.6853c0-6.0653 1.35333-11.5422 4.04076-16.462h.0004l.14252-.2588.0038-.0069.00057-.001c2.84804-5.2014 6.30165-9.8168 10.36015-13.8523 4.1926-4.1639 8.6317-7.6894 13.3165-10.5827 4.1822-2.5828 7.7626-4.74816 10.743-6.49744l3.9915 6.29982c-4.2653 2.34932-7.785 4.42742-10.5506 6.23282-3.1352 1.9471-6.292 4.538-9.4733 7.7514z" stroke="#DADEDF"/></svg>