<svg width="175" height="33" fill="none" xmlns="http://www.w3.org/2000/svg"><path d="M11 1.551L1.03399 16.5 11 31.449 20.966 16.5 11 1.551zM11 0l11 16.5L11 33 0 16.5 11 0z" fill="#FFC22D"/><path d="M8.008 12.6387l-.98267 1.32-.41067 4.18v-4.598l1.39334-.902zM10.5893 8.61328l-1.27597 1.342-.43267 2.03502v-1.969l.98267-.83602v.044l.72597-.616zM4.80332 18.1396h1.81133l-1.65733.308-.704 1.353.55-1.661z" fill="#FFC22D"/><path d="M9.60667 11.5175v-1.21L11 9.22949v1.35301l-1.39333.935zM10.1713 19.6902h-.43264v-1.364l.43264-.044v1.408zM10.1713 16.7315l-.43264.099v-1.364l.43264-.154v1.419zM10.1713 13.959l-.43264.198v-1.375l.43264-.242v1.419zM8.90999 19.6901h-.352v-1.232l.352-.044v1.276zM8.90999 17.028l-.352.077v-1.232l.352-.121v1.276zM8.90999 14.5309l-.352.154v-1.232l.352-.198v1.276zM7.82466 19.6902h-.29333v-1.122l.29333-.033v1.155zM7.82466 17.281l-.29333.066v-1.122l.29333-.099v1.155zM7.82466 15.0154l-.29333.132v-1.122l.29333-.165v1.155z" fill="#FFC22D"/><path d="M10.5893 8.61308l.4107-.396-1.13668.968v-1.705L11 5.83008l1.1367 1.65v1.705l.9826.83602v1.98l2.2734 1.529v4.598h1.804l.55 1.672H11v-9.218l1.3933.935v-1.21L11 9.22908v-.957l-.4107.341zm.0514-.858l-.3447.319v.66l.3447-.297v-.682zm1.6206 5.02702l-.44-.242v1.419l.44.198v-1.375zm0 2.684l-.44-.154v1.419l.44.099v-1.364zm0 2.86l-.44-.044v1.408h.44v-1.364zm1.914 1.364h.2934v-1.122l-.2934-.033v1.155zm0-2.409l.2934.066v-1.122l-.2934-.099v1.155zm0-2.266l.2934.132v-1.122l-.2934-.165v1.155zm-1.0853 4.675h.3593v-1.232l-.3593-.044v1.276zm0-2.662l.3593.088v-1.232l-.3593-.121v1.265zm0-2.497l.3593.165v-1.232l-.3593-.198v1.265zm-1.7893-6.08302l.3446.297v-.66l-.3446-.319v.682z" fill="#FFC22D"/><path d="M10.5893 8.61352l-.72597.616v-.044L11 8.22852l-.4107.385zM19.1033 19.7451l-16.16997.055L11 31.9001l8.1033-12.155z" fill="#FFC22D"/><path d="M40.7727 14c-.4318-2.3864-2.3409-3.7955-4.6818-3.7955-2.9773 0-5.1364 2.2955-5.1364 5.9773 0 3.6818 2.1591 5.9773 5.1364 5.9773 2.3409 0 4.25-1.4091 4.6818-3.7955h-1.4091c-.3409 1.6137-1.7272 2.4773-3.2727 2.4773-2.1136 0-3.7727-1.6364-3.7727-4.6591 0-3.0227 1.6591-4.6591 3.7727-4.6591 1.5455 0 2.9318.8637 3.2727 2.4773h1.4091zm1.6407-2.3864h3.659V22h1.4091V11.6136h3.6591v-1.25h-8.7272v1.25zM53.3153 22h1.4091v-4.25h2.5455c2.7102 0 3.9318-1.6477 3.9318-3.7045 0-2.0569-1.2216-3.6819-3.9545-3.6819h-3.9319V22zm1.4091-5.5v-4.8864h2.4773c1.8921 0 2.6136 1.0341 2.6136 2.4319 0 1.3977-.7215 2.4545-2.5909 2.4545h-2.5zm18.5654-.3182c0-3.6818-2.1591-5.9773-5.1364-5.9773S63.017 12.5 63.017 16.1818c0 3.6818 2.1591 5.9773 5.1364 5.9773s5.1364-2.2955 5.1364-5.9773zm-1.3637 0c0 3.0227-1.6591 4.6591-3.7727 4.6591s-3.7727-1.6364-3.7727-4.6591c0-3.0227 1.6591-4.6591 3.7727-4.6591s3.7727 1.6364 3.7727 4.6591zm3.733-5.8182V22h1.3636l6.3409-9.1364h.1137V22h1.4091V10.3636h-1.3637l-6.3636 9.1591h-.1136v-9.1591h-1.3864zm5.7273-2.90905c0 .5909-.3182 1.11363-1.1137 1.11363-.7954 0-1.0909-.52273-1.0909-1.11363h-1.25c0 1.22727.9091 2.0909 2.3409 2.0909 1.4546 0 2.3637-.86363 2.3637-2.0909h-1.25zM94.5469 22h1.6818l-4.8636-6.5227 4.7045-5.1137h-1.6818l-4.6591 5.0455h-.6136v-5.0455H87.706V22h1.4091v-5.3409h1.4318l4 5.3409zm12.7741-5.8182c0-3.6818-2.159-5.9773-5.136-5.9773-2.9776 0-5.1367 2.2955-5.1367 5.9773 0 3.6818 2.1591 5.9773 5.1367 5.9773 2.977 0 5.136-2.2955 5.136-5.9773zm-1.364 0c0 3.0227-1.659 4.6591-3.772 4.6591-2.114 0-3.7731-1.6364-3.7731-4.6591 0-3.0227 1.6591-4.6591 3.7731-4.6591 2.113 0 3.772 1.6364 3.772 4.6591zM109.69 22h1.409v-5.2045h6.205V22h1.409V10.3636h-1.409v5.1819h-6.205v-5.1819h-1.409V22zm11.208-10.3864h3.659V22h1.409V11.6136h3.659v-1.25h-8.727v1.25zM131.8 22h1.409v-4.25h2.545c2.71 0 3.932-1.6477 3.932-3.7045 0-2.0569-1.222-3.6819-3.954-3.6819H131.8V22zm1.409-5.5v-4.8864h2.477c1.892 0 2.614 1.0341 2.614 2.4319 0 1.3977-.722 2.4545-2.591 2.4545h-2.5zm18.565-.3182c0-3.6818-2.159-5.9773-5.136-5.9773-2.977 0-5.137 2.2955-5.137 5.9773 0 3.6818 2.16 5.9773 5.137 5.9773 2.977 0 5.136-2.2955 5.136-5.9773zm-1.363 0c0 3.0227-1.66 4.6591-3.773 4.6591-2.114 0-3.773-1.6364-3.773-4.6591 0-3.0227 1.659-4.6591 3.773-4.6591 2.113 0 3.773 1.6364 3.773 4.6591zM153.143 22h.432c2.568 0 3.086-2.0909 3.228-5.75l.181-4.6364h4.341V22h1.409V10.3636h-7.091l-.204 5.6137c-.125 3.4318-.5 4.7272-1.955 4.7272h-.341V22zm13.816-6.75v-4.8864h-1.409V22h4.363c2.5 0 3.864-1.4091 3.864-3.4318s-1.364-3.3182-3.864-3.3182h-2.954zm0 1.25h2.954c1.591 0 2.478.9318 2.478 2.0455 0 1.1363-.887 2.2272-2.478 2.2272h-2.954V16.5z" fill="#212B31"/></svg>